<svg width="68" height="68" viewBox="0 0 68 68" fill="none" xmlns="http://www.w3.org/2000/svg">
<path d="M47.0677 21.2447C43.8125 18.0034 39.3238 16 34.3672 16C24.4261 16 16.3672 24.0589 16.3672 34C16.3672 35.6029 16.5767 37.1569 16.9698 38.636M21.6404 46.729C24.8976 49.9857 29.3972 52 34.3672 52C44.3083 52 52.3672 43.9411 52.3672 34C52.3672 32.4003 52.1585 30.8494 51.7669 29.373" stroke="#1F1F1F" stroke-width="2" stroke-linecap="round"/>
<path d="M21.5692 49.4503L24.8129 46.2067C25.6459 45.3736 25.2375 43.9493 24.0895 43.6844L19.8727 42.7113C18.7926 42.4621 17.8246 43.4301 18.0738 44.5102L19.0469 48.727C19.3119 49.875 20.7361 50.2834 21.5692 49.4503Z" fill="#1F1F1F"/>
<path d="M46.5246 17.9129L43.2809 21.1566C42.4478 21.9897 42.8563 23.4139 44.0043 23.6789L48.221 24.652C49.3011 24.9012 50.2692 23.9332 50.0199 22.8531L49.0468 18.6363C48.7819 17.4883 47.3576 17.0799 46.5246 17.9129Z" fill="#1F1F1F"/>
</svg>
