<svg width="24" height="14" viewBox="0 0 24 14" fill="none" xmlns="http://www.w3.org/2000/svg">
<path fill-rule="evenodd" clip-rule="evenodd" d="M11.2393 12.7012C11.2487 12.7113 11.2583 12.7213 11.2682 12.7312C11.4363 12.8993 11.6479 12.9974 11.8669 13.0255C12.174 13.0653 12.4957 12.9673 12.7316 12.7313C12.7428 12.7201 12.7537 12.7087 12.7643 12.6972L23.6965 1.76498C24.1002 1.36122 24.1002 0.706585 23.6965 0.302822C23.2927 -0.100942 22.6381 -0.10094 22.2343 0.302823L11.9998 10.5373L1.76547 0.302992C1.3617 -0.100771 0.707074 -0.100771 0.30331 0.302992C-0.100453 0.706756 -0.100452 1.36139 0.303312 1.76515L11.2393 12.7012Z" fill="#B0B0B1"/>
</svg>
