<svg width="149" height="24" viewBox="0 0 149 24" fill="none" xmlns="http://www.w3.org/2000/svg">
<path d="M1.6665 17V5.56H9.5705V8.088H4.9305V10.056H8.6265V12.392H4.9305V14.472H9.8265V17H1.6665ZM10.5354 17L13.3194 12.744L10.7114 8.632H14.0074L15.3034 10.84L16.5674 8.632H19.5114L16.8714 12.52L19.7674 17H16.4714L14.9834 14.504L13.4634 17H10.5354ZM20.8011 19.8V8.632H23.6651V9.88C24.1451 9.08 25.0091 8.408 26.2731 8.408C28.2251 8.408 29.8091 9.88 29.8091 12.744V12.872C29.8091 15.752 28.2251 17.192 26.2571 17.192C24.9931 17.192 24.0811 16.6 23.6651 15.768V19.8H20.8011ZM25.2491 15C26.3211 15 26.8971 14.248 26.8971 12.872V12.744C26.8971 11.272 26.2571 10.568 25.2491 10.568C24.2091 10.568 23.5851 11.32 23.5851 12.728V12.856C23.5851 14.28 24.2091 15 25.2491 15ZM31.1624 17V4.952H34.0104V17H31.1624ZM39.9295 15.064C41.0015 15.064 41.5775 14.264 41.5775 12.872V12.744C41.5775 11.336 41.0175 10.552 39.9295 10.552C38.8575 10.552 38.2655 11.304 38.2655 12.712V12.84C38.2655 14.28 38.8255 15.064 39.9295 15.064ZM39.9135 17.192C37.3375 17.192 35.3375 15.624 35.3375 12.92V12.792C35.3375 10.104 37.3375 8.408 39.9295 8.408C42.5055 8.408 44.4895 10.056 44.4895 12.712V12.84C44.4895 15.56 42.4895 17.192 39.9135 17.192ZM45.7386 17V8.632H48.6026V10.296C49.1306 9.048 50.0106 8.504 51.3066 8.52V11.192C49.5626 11.144 48.6026 11.688 48.6026 13.032V17H45.7386ZM56.6003 17.192C53.9763 17.192 52.0563 15.656 52.0563 12.92V12.792C52.0563 10.104 54.0563 8.408 56.5843 8.408C58.8723 8.408 60.8403 9.72 60.8403 12.728V13.48H54.9523C55.0323 14.584 55.6723 15.224 56.6963 15.224C57.6403 15.224 58.0403 14.792 58.1523 14.232H60.8403C60.5843 16.12 59.1283 17.192 56.6003 17.192ZM54.9843 11.864H58.0563C58.0083 10.856 57.5123 10.296 56.5843 10.296C55.7203 10.296 55.1283 10.856 54.9843 11.864ZM65.479 17V5.56H69.831C72.967 5.56 74.423 6.952 74.423 9.384V9.448C74.423 11.848 72.807 13.144 69.975 13.144H68.743V17H65.479ZM68.743 10.904H69.687C70.743 10.904 71.303 10.408 71.303 9.464V9.4C71.303 8.424 70.727 8.024 69.703 8.024H68.743V10.904ZM77.7 17.192C76.196 17.192 74.868 16.456 74.868 14.68C74.868 12.712 76.532 11.944 79.316 11.944H80.116V11.752C80.116 10.952 79.924 10.424 79.012 10.424C78.228 10.424 77.94 10.888 77.876 11.416H75.188C75.316 9.4 76.9 8.408 79.188 8.408C81.492 8.408 82.964 9.352 82.964 11.576V17H80.18V16.024C79.78 16.632 79.044 17.192 77.7 17.192ZM78.692 15.256C79.508 15.256 80.116 14.792 80.116 14.072V13.56H79.364C78.212 13.56 77.7 13.784 77.7 14.472C77.7 14.952 78.02 15.256 78.692 15.256ZM84.598 17V8.632H87.462V9.976C87.91 9.112 88.822 8.408 90.214 8.408C91.83 8.408 92.95 9.416 92.95 11.56V17H90.086V12.136C90.086 11.192 89.718 10.728 88.886 10.728C88.038 10.728 87.462 11.24 87.462 12.312V17H84.598ZM98.6784 17.192C96.0544 17.192 94.1344 15.656 94.1344 12.92V12.792C94.1344 10.104 96.1344 8.408 98.6624 8.408C100.95 8.408 102.918 9.72 102.918 12.728V13.48H97.0304C97.1104 14.584 97.7504 15.224 98.7744 15.224C99.7184 15.224 100.118 14.792 100.23 14.232H102.918C102.662 16.12 101.206 17.192 98.6784 17.192ZM97.0624 11.864H100.134C100.086 10.856 99.5904 10.296 98.6624 10.296C97.7984 10.296 97.2064 10.856 97.0624 11.864ZM104.225 17V4.952H107.073V17H104.225Z" fill="#1F1F1F"/>
<path fill-rule="evenodd" clip-rule="evenodd" d="M147.699 11.2367C147.71 11.2471 147.721 11.2578 147.732 11.2688C148.136 11.6726 148.136 12.3272 147.732 12.731L136.766 23.6971C136.362 24.1009 135.708 24.1009 135.304 23.6971C134.9 23.2934 134.9 22.6388 135.304 22.235L145.538 12.0006L135.303 1.76499C134.899 1.36123 134.899 0.706598 135.303 0.302835C135.707 -0.100929 136.361 -0.100929 136.765 0.302835L147.699 11.2367Z" fill="#1F1F1F"/>
<rect x="116" y="11" width="32" height="2" rx="1" fill="#1F1F1F"/>
</svg>
