<svg width="80" height="16" viewBox="0 0 80 16" fill="none" xmlns="http://www.w3.org/2000/svg">
<path d="M24.984 12V3.42H30.3V4.692H26.58V7.248H29.508V8.484H26.58V12H24.984ZM32.9768 12.12C31.8248 12.12 30.8768 11.568 30.8768 10.26C30.8768 8.796 32.2928 8.268 34.0928 8.268H34.8728V7.944C34.8728 7.104 34.5848 6.684 33.7328 6.684C32.9768 6.684 32.6048 7.044 32.5328 7.668H31.1288C31.2488 6.204 32.4128 5.592 33.8168 5.592C35.2208 5.592 36.3248 6.168 36.3248 7.884V12H34.8968V11.232C34.4888 11.772 33.9368 12.12 32.9768 12.12ZM33.3248 11.076C34.2128 11.076 34.8728 10.608 34.8728 9.804V9.18H34.1288C33.0248 9.18 32.3168 9.432 32.3168 10.2C32.3168 10.728 32.6048 11.076 33.3248 11.076ZM40.737 12.12C38.937 12.12 37.569 10.944 37.569 8.94V8.844C37.569 6.852 38.985 5.592 40.737 5.592C42.129 5.592 43.437 6.216 43.605 7.944H42.201C42.081 7.104 41.529 6.756 40.761 6.756C39.765 6.756 39.057 7.524 39.057 8.82V8.916C39.057 10.284 39.729 11.004 40.797 11.004C41.565 11.004 42.225 10.548 42.309 9.66H43.641C43.533 11.1 42.441 12.12 40.737 12.12ZM47.6513 12.12C45.8033 12.12 44.4713 10.908 44.4713 8.928V8.832C44.4713 6.888 45.8033 5.592 47.5913 5.592C49.1513 5.592 50.5553 6.516 50.5553 8.76V9.18H45.9593C46.0073 10.368 46.6073 11.04 47.6873 11.04C48.5633 11.04 49.0193 10.692 49.1273 10.08H50.5313C50.3273 11.4 49.2593 12.12 47.6513 12.12ZM45.9833 8.208H49.1153C49.0433 7.128 48.4913 6.648 47.5913 6.648C46.7153 6.648 46.1273 7.236 45.9833 8.208ZM55.3563 12.12C54.3603 12.12 53.6403 11.628 53.3043 10.992V12H51.8523V2.82H53.3043V6.732C53.6523 6.132 54.4323 5.592 55.3563 5.592C56.9283 5.592 58.1403 6.756 58.1403 8.784V8.88C58.1403 10.896 56.9763 12.12 55.3563 12.12ZM54.9963 10.968C56.0643 10.968 56.6523 10.248 56.6523 8.904V8.808C56.6523 7.416 55.9323 6.732 54.9843 6.732C53.9763 6.732 53.2563 7.416 53.2563 8.808V8.904C53.2563 10.308 53.9403 10.968 54.9963 10.968ZM62.254 10.992C63.334 10.992 63.982 10.188 63.982 8.904V8.82C63.982 7.524 63.334 6.732 62.254 6.732C61.174 6.732 60.514 7.512 60.514 8.808V8.904C60.514 10.188 61.15 10.992 62.254 10.992ZM62.242 12.12C60.394 12.12 59.026 10.836 59.026 8.928V8.832C59.026 6.888 60.406 5.592 62.254 5.592C64.09 5.592 65.47 6.876 65.47 8.796V8.892C65.47 10.848 64.09 12.12 62.242 12.12ZM69.59 10.992C70.67 10.992 71.318 10.188 71.318 8.904V8.82C71.318 7.524 70.67 6.732 69.59 6.732C68.51 6.732 67.85 7.512 67.85 8.808V8.904C67.85 10.188 68.486 10.992 69.59 10.992ZM69.578 12.12C67.73 12.12 66.362 10.836 66.362 8.928V8.832C66.362 6.888 67.742 5.592 69.59 5.592C71.426 5.592 72.806 6.876 72.806 8.796V8.892C72.806 10.848 71.426 12.12 69.578 12.12ZM74.1179 12V2.82H75.5699V8.484L77.8139 5.724H79.3979L76.9619 8.604L79.6019 12H77.9219L75.5699 8.916V12H74.1179Z" fill="#FAFAFA"/>
<g clip-path="url(#clip0_66_59)">
<path fill-rule="evenodd" clip-rule="evenodd" d="M7.96944 15.9999L7.97659 16H7.97412L7.96944 15.9999ZM8.02588 16H8.02341L8.03056 15.9999L8.02588 16ZM7.945 15.9998L7.95272 15.9998H7.94828L7.945 15.9998ZM8.05172 15.9998H8.04728L8.055 15.9998L8.05172 15.9998ZM7.92144 15.9996L7.92659 15.9997L7.92247 15.9996H7.92144ZM8.07753 15.9996L8.07341 15.9997L8.07856 15.9996H8.07753ZM8.10334 15.9993L8.10153 15.9994L8.1085 15.9993L8.10334 15.9993ZM7.8915 15.9993L7.89847 15.9994L7.89666 15.9993L7.8915 15.9993ZM8.12912 15.999L8.12491 15.999L8.1335 15.9989L8.12912 15.999ZM7.8665 15.9989L7.87509 15.999L7.87087 15.999L7.8665 15.9989ZM8.15487 15.9985L8.14919 15.9986L8.15713 15.9985L8.15487 15.9985ZM7.84288 15.9985L7.85081 15.9986L7.84513 15.9985L7.84288 15.9985ZM7.81359 15.9979L7.82062 15.998L7.81938 15.998L7.81359 15.9979ZM8.18062 15.998L8.17937 15.998L8.18641 15.9979L8.18062 15.998ZM7.78791 15.9972L7.79756 15.9975L7.79366 15.9974L7.78791 15.9972ZM8.20634 15.9974L8.20244 15.9975L8.21209 15.9972L8.20634 15.9974ZM8.23206 15.9967L8.22578 15.9969L8.23566 15.9966L8.23206 15.9967ZM7.76434 15.9966L7.77422 15.9969L7.76794 15.9967L7.76434 15.9966ZM7.74184 15.9959L7.74888 15.9961L7.74225 15.9959L7.73619 15.9957L7.74184 15.9959ZM8.25775 15.9959L8.25113 15.9961L8.25816 15.9959L8.26381 15.9957L8.25775 15.9959ZM8.28341 15.9951L8.27991 15.9952L8.29069 15.9948L8.28341 15.9951ZM7.70931 15.9948L7.72009 15.9952L7.71659 15.9951L7.70931 15.9948ZM7.68591 15.9939L7.69722 15.9943L7.69094 15.9941L7.68591 15.9939ZM8.30906 15.9941L8.30278 15.9943L8.31409 15.9939L8.30906 15.9941ZM7.66294 15.993L7.674 15.9935L7.66534 15.9931L7.66294 15.993ZM8.33466 15.9931L8.326 15.9935L8.33706 15.993L8.33466 15.9931ZM7.63075 15.9916L7.64262 15.9921L7.63972 15.992L7.63075 15.9916ZM8.36028 15.992L8.35738 15.9921L8.36925 15.9916L8.36028 15.992ZM7.60766 15.9905L7.61997 15.9911L7.61416 15.9908L7.60766 15.9905ZM8.38584 15.9908L8.38003 15.9911L8.39234 15.9905L8.38584 15.9908ZM7.58491 15.9894L7.59731 15.99L7.58859 15.9896L7.58491 15.9894ZM8.41141 15.9896L8.40269 15.99L8.41509 15.9894L8.41141 15.9896ZM8.43697 15.9882L8.42566 15.9888L8.43569 15.9883L8.4475 15.9877L8.43697 15.9882ZM7.56431 15.9883L7.57434 15.9888L7.56303 15.9882L7.5525 15.9877L7.56431 15.9883ZM8.46247 15.9868L8.45747 15.9871L8.47016 15.9864L8.46247 15.9868ZM7.52984 15.9864L7.54253 15.9871L7.53753 15.9868L7.52984 15.9864ZM7.50728 15.985L7.51994 15.9858L7.51203 15.9853L7.50728 15.985ZM8.48797 15.9853L8.48006 15.9858L8.49272 15.985L8.48797 15.9853ZM7.48575 15.9837L7.49716 15.9844L7.48653 15.9838L7.47584 15.9831L7.48575 15.9837ZM8.51347 15.9838L8.50284 15.9844L8.51425 15.9837L8.52416 15.9831L8.51347 15.9838ZM8.53891 15.9821L8.53509 15.9823L8.54719 15.9815L8.53891 15.9821ZM7.45281 15.9815L7.46491 15.9823L7.46109 15.9821L7.45281 15.9815ZM7.43028 15.98L7.44216 15.9808L7.43566 15.9804L7.43028 15.98ZM8.56434 15.9804L8.55784 15.9808L8.56972 15.98L8.56434 15.9804ZM7.40781 15.9784L7.41872 15.9792L7.41025 15.9786L7.40781 15.9784ZM8.58975 15.9786L8.58128 15.9792L8.59219 15.9784L8.58975 15.9786ZM7.37759 15.9761L7.38716 15.9768L7.38484 15.9767L7.37759 15.9761ZM8.61516 15.9767L8.61284 15.9768L8.62241 15.9761L8.61516 15.9767ZM8.6405 15.9747L8.63594 15.975L8.64566 15.9742L8.6405 15.9747ZM7.35434 15.9742L7.36406 15.975L7.3595 15.9747L7.35434 15.9742ZM7.33169 15.9724L7.33994 15.9731L7.33413 15.9726L7.33169 15.9724ZM8.66588 15.9726L8.66006 15.9731L8.66831 15.9724L8.66588 15.9726ZM7.30675 15.9703L7.30922 15.9705L7.30881 15.9705L7.30675 15.9703ZM8.69119 15.9705L8.69078 15.9705L8.69325 15.9703L8.69119 15.9705ZM8.7165 15.9683L8.71425 15.9685L8.71991 15.968L8.7165 15.9683ZM7.28009 15.968L7.28575 15.9685L7.2835 15.9683L7.28009 15.968ZM7.25666 15.9658L7.26088 15.9663L7.25825 15.966L7.25666 15.9658ZM8.74175 15.966L8.73913 15.9663L8.74334 15.9658L8.74175 15.966ZM6.75 15.9027C2.92753 15.3019 0 11.9901 0 8C0 3.58469 3.58469 0 8 0C12.4153 0 16 3.58469 16 8C16 11.9901 13.0725 15.3019 9.25 15.9027V10.3125H11.1141L11.4688 8H9.25V6.49934C9.25 5.86669 9.55994 5.25 10.5537 5.25H11.5625V3.28125C11.5625 3.28125 10.647 3.125 9.77172 3.125C7.94434 3.125 6.75 4.2325 6.75 6.2375V8H4.71875V10.3125H6.75V15.9027Z" fill="#FAFAFA"/>
</g>
<defs>
<clipPath id="clip0_66_59">
<rect width="16" height="16" fill="white"/>
</clipPath>
</defs>
</svg>
