<svg width="49" height="32" viewBox="0 0 49 32" fill="none" xmlns="http://www.w3.org/2000/svg">
<g clip-path="url(#clip0_1_529)">
<path d="M40.498 31H7.49805C7.2219 31 6.99805 31.2239 6.99805 31.5C6.99805 31.7761 7.2219 32 7.49805 32H40.498C40.7742 32 40.998 31.7761 40.998 31.5C40.998 31.2239 40.7742 31 40.498 31Z" fill="#FAFAFA"/>
<path d="M39.998 31V10C39.998 9.44772 39.5503 9 38.998 9C38.4457 9 37.998 9.44772 37.998 10V31C37.998 31.5523 38.4457 32 38.998 32C39.5503 32 39.998 31.5523 39.998 31Z" fill="#FAFAFA"/>
<path d="M47.4598 10.1812L10.4288 0.258819C9.89535 0.115877 9.34701 0.432459 9.20407 0.965925L9.20407 0.965927C9.06113 1.49939 9.37771 2.04773 9.91118 2.19067L46.9422 12.1131C47.4756 12.256 48.024 11.9395 48.1669 11.406C48.3099 10.8725 47.9933 10.3242 47.4598 10.1812Z" fill="#FAFAFA"/>
<path d="M2.48102 18.9556L19.9989 14.2617C20.5323 14.1188 20.8489 13.5705 20.706 13.037L20.706 13.037C20.563 12.5035 20.0147 12.187 19.4812 12.3299L1.96338 17.0238C1.42991 17.1667 1.11333 17.7151 1.25627 18.2485C1.39922 18.782 1.94755 19.0986 2.48102 18.9556Z" fill="#FAFAFA"/>
<path d="M33.6702 18.0543L19.5636 14.2744C19.0302 14.1315 18.7136 13.5832 18.8565 13.0497L18.8565 13.0497C18.9995 12.5162 19.5478 12.1997 20.0813 12.3426L34.1879 16.1224C34.7213 16.2654 35.0379 16.8137 34.895 17.3472C34.752 17.8806 34.2037 18.1972 33.6702 18.0543Z" fill="#FAFAFA"/>
<path d="M9.99805 31L9.99805 17C9.99805 16.4477 9.55033 16 8.99805 16C8.44576 16 7.99805 16.4477 7.99805 17L7.99805 31C7.99805 31.5523 8.44576 32 8.99805 32C9.55033 32 9.99805 31.5523 9.99805 31Z" fill="#FAFAFA"/>
<path d="M14.998 14V3C14.998 2.44772 14.5503 2 13.998 2C13.4457 2 12.998 2.44772 12.998 3V14C12.998 14.5523 13.4457 15 13.998 15C14.5503 15 14.998 14.5523 14.998 14Z" fill="#FAFAFA"/>
<path d="M17.998 22C17.998 21.4477 18.4458 21 18.998 21H21.998C22.5503 21 22.998 21.4477 22.998 22V31H17.998V22Z" fill="#FAFAFA"/>
</g>
<defs>
<clipPath id="clip0_1_529">
<rect width="49" height="32" fill="white"/>
</clipPath>
</defs>
</svg>
