<svg width="15" height="15" viewBox="0 0 15 15" fill="none" xmlns="http://www.w3.org/2000/svg">
<circle cx="7.5" cy="7.5" r="7" />
<path d="M6.7032 9.15682H8.0472V8.77282C8.0832 8.10082 8.6592 7.60882 9.2232 7.06882C9.7632 6.54082 10.2792 5.98882 10.2792 5.13682C10.2792 3.97282 9.4752 3.03682 7.7592 3.03682C6.1512 3.03682 5.0352 4.02082 4.9512 5.59282H6.3432C6.4272 4.76482 6.9432 4.23682 7.6872 4.23682C8.4192 4.23682 8.7552 4.63282 8.7552 5.24482C8.7552 5.76082 8.3592 6.15682 7.9152 6.60082C7.3392 7.16482 6.7032 7.75282 6.7032 8.70082V9.15682ZM7.3632 11.8208C7.8912 11.8208 8.3232 11.4128 8.3232 10.8968C8.3232 10.3688 7.8912 9.96082 7.3632 9.96082C6.8232 9.96082 6.3792 10.3688 6.3792 10.8968C6.3792 11.4128 6.8232 11.8208 7.3632 11.8208Z" />
</svg>
