<svg width="82" height="16" viewBox="0 0 82 16" fill="none" xmlns="http://www.w3.org/2000/svg">
<path d="M25.032 12V3.42H26.64V12H25.032ZM28.5437 12V5.724H29.9957V6.72C30.2957 6.108 30.9917 5.592 32.0237 5.592C33.2837 5.592 34.1717 6.324 34.1717 8.052V12H32.7197V8.184C32.7197 7.236 32.3357 6.804 31.4717 6.804C30.6557 6.804 29.9957 7.308 29.9957 8.304V12H28.5437ZM37.9925 12.12C36.3725 12.12 35.4245 11.376 35.3645 10.044H36.7325C36.8045 10.68 37.1285 11.052 37.9805 11.052C38.7605 11.052 39.1085 10.776 39.1085 10.248C39.1085 9.732 38.6885 9.54 37.7645 9.384C36.1085 9.12 35.4965 8.652 35.4965 7.476C35.4965 6.216 36.6725 5.592 37.8485 5.592C39.1325 5.592 40.1525 6.072 40.3085 7.488H38.9645C38.8445 6.912 38.5205 6.648 37.8485 6.648C37.2245 6.648 36.8525 6.948 36.8525 7.392C36.8525 7.848 37.1525 8.028 38.1485 8.196C39.6245 8.424 40.5005 8.784 40.5005 10.116C40.5005 11.388 39.6005 12.12 37.9925 12.12ZM43.9102 12.108C42.6622 12.108 42.0142 11.436 42.0142 10.248V6.816H41.1742V5.724H42.0142V4.344H43.4662V5.724H44.8462V6.816H43.4662V10.116C43.4662 10.668 43.7302 10.92 44.1862 10.92C44.4742 10.92 44.6902 10.884 44.8942 10.8V11.952C44.6662 12.036 44.3542 12.108 43.9102 12.108ZM47.9064 12.12C46.7544 12.12 45.8064 11.568 45.8064 10.26C45.8064 8.796 47.2224 8.268 49.0224 8.268H49.8024V7.944C49.8024 7.104 49.5144 6.684 48.6624 6.684C47.9064 6.684 47.5344 7.044 47.4624 7.668H46.0584C46.1784 6.204 47.3424 5.592 48.7464 5.592C50.1504 5.592 51.2544 6.168 51.2544 7.884V12H49.8264V11.232C49.4184 11.772 48.8664 12.12 47.9064 12.12ZM48.2544 11.076C49.1424 11.076 49.8024 10.608 49.8024 9.804V9.18H49.0584C47.9544 9.18 47.2464 9.432 47.2464 10.2C47.2464 10.728 47.5344 11.076 48.2544 11.076ZM55.5947 14.304C53.6267 14.304 52.7387 13.416 52.5707 12.216H54.0347C54.1547 12.84 54.6347 13.2 55.5827 13.2C56.7107 13.2 57.3347 12.636 57.3347 11.508V10.584C56.9867 11.184 56.2067 11.748 55.2827 11.748C53.7107 11.748 52.4987 10.572 52.4987 8.76V8.676C52.4987 6.912 53.6987 5.592 55.3187 5.592C56.3507 5.592 56.9747 6.06 57.3347 6.684V5.724H58.7867V11.532C58.7747 13.38 57.5387 14.304 55.5947 14.304ZM55.6427 10.632C56.6507 10.632 57.3827 9.912 57.3827 8.712V8.628C57.3827 7.44 56.7347 6.732 55.6907 6.732C54.6107 6.732 53.9867 7.512 53.9867 8.652V8.748C53.9867 9.912 54.7067 10.632 55.6427 10.632ZM60.5124 12V5.724H61.9644V6.9C62.3604 6.108 62.9484 5.64 64.0044 5.628V6.984C62.7324 6.996 61.9644 7.404 61.9644 8.736V12H60.5124ZM66.8088 12.12C65.6568 12.12 64.7088 11.568 64.7088 10.26C64.7088 8.796 66.1248 8.268 67.9248 8.268H68.7048V7.944C68.7048 7.104 68.4168 6.684 67.5648 6.684C66.8088 6.684 66.4368 7.044 66.3648 7.668H64.9608C65.0808 6.204 66.2448 5.592 67.6488 5.592C69.0528 5.592 70.1568 6.168 70.1568 7.884V12H68.7288V11.232C68.3208 11.772 67.7688 12.12 66.8088 12.12ZM67.1568 11.076C68.0448 11.076 68.7048 10.608 68.7048 9.804V9.18H67.9608C66.8568 9.18 66.1488 9.432 66.1488 10.2C66.1488 10.728 66.4368 11.076 67.1568 11.076ZM71.821 12V5.724H73.273V6.684C73.573 6.096 74.257 5.592 75.181 5.592C75.997 5.592 76.645 5.94 76.957 6.72C77.437 5.94 78.301 5.592 79.081 5.592C80.233 5.592 81.169 6.3 81.169 8.028V12H79.717V8.124C79.717 7.2 79.321 6.804 78.601 6.804C77.881 6.804 77.221 7.284 77.221 8.244V12H75.769V8.124C75.769 7.2 75.361 6.804 74.653 6.804C73.933 6.804 73.273 7.284 73.273 8.244V12H71.821Z" fill="#FAFAFA"/>
<path fill-rule="evenodd" clip-rule="evenodd" d="M8 0C12.4153 0 16 3.58469 16 8C16 12.4153 12.4153 16 8 16C3.58469 16 0 12.4153 0 8C0 3.58469 3.58469 0 8 0ZM8 3C6.64209 3 6.47181 3.00575 5.9385 3.03009C5.40631 3.05437 5.04284 3.13891 4.72478 3.2625C4.396 3.39028 4.11716 3.56125 3.83919 3.83922C3.56122 4.11719 3.39025 4.39603 3.26247 4.72481C3.13888 5.04284 3.05437 5.40631 3.03006 5.9385C3.00575 6.47181 3 6.64209 3 8C3 9.35791 3.00575 9.52819 3.03006 10.0615C3.05437 10.5937 3.13888 10.9572 3.26247 11.2752C3.39025 11.604 3.56122 11.8828 3.83919 12.1608C4.11716 12.4388 4.396 12.6098 4.72478 12.7375C5.04284 12.8611 5.40631 12.9456 5.9385 12.9699C6.47181 12.9942 6.64209 13 8 13C9.35791 13 9.52819 12.9942 10.0615 12.9699C10.5937 12.9456 10.9572 12.8611 11.2752 12.7375C11.604 12.6098 11.8828 12.4388 12.1608 12.1608C12.4388 11.8828 12.6098 11.604 12.7375 11.2752C12.8611 10.9572 12.9456 10.5937 12.9699 10.0615C12.9942 9.52819 13 9.35791 13 8C13 6.64209 12.9942 6.47181 12.9699 5.9385C12.9456 5.40631 12.8611 5.04284 12.7375 4.72481C12.6098 4.39603 12.4388 4.11719 12.1608 3.83922C11.8828 3.56125 11.604 3.39028 11.2752 3.2625C10.9572 3.13891 10.5937 3.05437 10.0615 3.03009C9.52819 3.00575 9.35791 3 8 3ZM8 3.90091C9.33506 3.90091 9.49319 3.906 10.0204 3.93006C10.5079 3.95231 10.7727 4.03375 10.9488 4.10222C11.1823 4.19291 11.3488 4.30128 11.5238 4.47625C11.6988 4.65119 11.8071 4.81778 11.8978 5.05116C11.9663 5.22734 12.0477 5.49206 12.0699 5.97956C12.094 6.50681 12.0991 6.66494 12.0991 8C12.0991 9.33506 12.094 9.49319 12.0699 10.0204C12.0477 10.5079 11.9663 10.7727 11.8978 10.9488C11.8071 11.1823 11.6988 11.3488 11.5238 11.5238C11.3488 11.6988 11.1823 11.8071 10.9488 11.8978C10.7727 11.9663 10.5079 12.0477 10.0204 12.0699C9.49328 12.094 9.33516 12.0991 8 12.0991C6.66484 12.0991 6.50675 12.094 5.97956 12.0699C5.49206 12.0477 5.22734 11.9663 5.05116 11.8978C4.81775 11.8071 4.65119 11.6988 4.47622 11.5238C4.30125 11.3488 4.19291 11.1823 4.10222 10.9488C4.03375 10.7727 3.95228 10.5079 3.93003 10.0204C3.90597 9.49319 3.90091 9.33506 3.90091 8C3.90091 6.66494 3.90597 6.50681 3.93003 5.97956C3.95228 5.49206 4.03375 5.22734 4.10222 5.05116C4.19291 4.81778 4.30125 4.65119 4.47622 4.47625C4.65119 4.30128 4.81775 4.19291 5.05116 4.10222C5.22734 4.03375 5.49206 3.95231 5.97956 3.93006C6.50681 3.906 6.66494 3.90091 8 3.90091ZM8 5.43244C6.58197 5.43244 5.43244 6.58197 5.43244 8C5.43244 9.41803 6.58197 10.5676 8 10.5676C9.41803 10.5676 10.5676 9.41803 10.5676 8C10.5676 6.58197 9.41803 5.43244 8 5.43244ZM8 9.66666C7.07953 9.66666 6.33334 8.92047 6.33334 8C6.33334 7.07953 7.07953 6.33334 8 6.33334C8.92047 6.33334 9.66666 7.07953 9.66666 8C9.66666 8.92047 8.92047 9.66666 8 9.66666ZM11.269 5.331C11.269 5.66237 11.0004 5.93097 10.669 5.93097C10.3377 5.93097 10.069 5.66237 10.069 5.331C10.069 4.99962 10.3377 4.731 10.669 4.731C11.0004 4.731 11.269 4.99962 11.269 5.331Z" fill="#FAFAFA"/>
</svg>
