<svg width="73" height="16" viewBox="0 0 73 16" fill="none" xmlns="http://www.w3.org/2000/svg">
<path d="M24.984 12V3.42H26.58V10.728H30.24V12H24.984ZM31.5094 12V5.724H32.9614V12H31.5094ZM32.2174 4.692C31.7374 4.692 31.3534 4.332 31.3534 3.864C31.3534 3.384 31.7374 3.024 32.2174 3.024C32.6974 3.024 33.0814 3.384 33.0814 3.864C33.0814 4.332 32.6974 4.692 32.2174 4.692ZM34.7312 12V5.724H36.1832V6.72C36.4832 6.108 37.1792 5.592 38.2112 5.592C39.4712 5.592 40.3592 6.324 40.3592 8.052V12H38.9072V8.184C38.9072 7.236 38.5232 6.804 37.6592 6.804C36.8432 6.804 36.1832 7.308 36.1832 8.304V12H34.7312ZM42.032 12V2.82H43.484V8.484L45.728 5.724H47.312L44.876 8.604L47.516 12H45.836L43.484 8.916V12H42.032ZM50.9678 12.12C49.1198 12.12 47.7878 10.908 47.7878 8.928V8.832C47.7878 6.888 49.1198 5.592 50.9078 5.592C52.4678 5.592 53.8718 6.516 53.8718 8.76V9.18H49.2758C49.3238 10.368 49.9238 11.04 51.0038 11.04C51.8798 11.04 52.3358 10.692 52.4438 10.08H53.8478C53.6438 11.4 52.5758 12.12 50.9678 12.12ZM49.2998 8.208H52.4318C52.3598 7.128 51.8078 6.648 50.9078 6.648C50.0318 6.648 49.4438 7.236 49.2998 8.208ZM57.5207 12.12C55.9487 12.12 54.7607 11.004 54.7607 8.964V8.868C54.7607 6.864 55.9487 5.592 57.5807 5.592C58.6007 5.592 59.2367 6.06 59.5847 6.684V2.82H61.0367V12H59.5847V10.944C59.2487 11.568 58.4447 12.12 57.5207 12.12ZM57.8807 10.968C58.8887 10.968 59.6327 10.296 59.6327 8.892V8.796C59.6327 7.416 58.9967 6.732 57.9407 6.732C56.8727 6.732 56.2487 7.476 56.2487 8.832V8.928C56.2487 10.308 56.9447 10.968 57.8807 10.968ZM62.9304 12V3.42H64.5384V12H62.9304ZM66.4421 12V5.724H67.8941V6.72C68.1941 6.108 68.8901 5.592 69.9221 5.592C71.1821 5.592 72.0701 6.324 72.0701 8.052V12H70.6181V8.184C70.6181 7.236 70.2341 6.804 69.3701 6.804C68.5541 6.804 67.8941 7.308 67.8941 8.304V12H66.4421Z" fill="#FAFAFA"/>
<g clip-path="url(#clip0_66_74)">
<path d="M8.00003 0C3.58172 0 0 3.58172 0 8.00003C0 12.4183 3.58172 16.0001 8.00003 16.0001C12.4183 16.0001 16.0001 12.4183 16.0001 8.00003C16.0001 3.58172 12.4183 0 8.00003 0ZM4.19989 11.6553V6.15884H6.02685V11.6553H4.19989ZM5.11376 5.40849H5.11363H5.10178C4.4886 5.40849 4.09218 4.98644 4.09218 4.45894C4.09218 3.93143 4.50058 3.50919 5.12587 3.50919C5.75115 3.50919 6.13533 3.91945 6.14725 4.45894C6.14725 4.98638 5.7507 5.40849 5.11376 5.40849ZM12.6147 11.6553H10.7879V8.71515C10.7879 7.9762 10.5233 7.4722 9.86243 7.4722C9.3576 7.4722 9.05704 7.81211 8.92498 8.14048C8.87674 8.25767 8.86482 8.42214 8.86482 8.58617V11.6553H7.03805V11.6555C7.03805 11.6555 7.06201 6.67463 7.03811 6.15904H8.86495V6.93707C9.10778 6.56263 9.54245 6.02999 10.5115 6.02999C11.7134 6.02999 12.6146 6.81559 12.6146 8.50383V11.6554L12.6147 11.6553Z" fill="#FAFAFA"/>
</g>
<defs>
<clipPath id="clip0_66_74">
<rect width="16" height="16" fill="white"/>
</clipPath>
</defs>
</svg>
