<svg width="108" height="18" viewBox="0 0 108 18" fill="none" xmlns="http://www.w3.org/2000/svg">
<path fill-rule="evenodd" clip-rule="evenodd" d="M12.0059 17.0247H4.95646C4.11808 17.0247 4 16.6855 4 15.8254C4 15.0985 4.10627 14.6503 4.95646 14.6503H12.0059H12.8207C13.0514 14.6503 13.2777 14.6513 13.4989 14.6522C16.1976 14.6638 18.1343 14.6722 18.1343 12.8695C18.1343 11.1669 17.232 11.1257 12.8399 10.9254L12.7026 10.9191C6.34982 10.6647 4.20074 9.82885 4.20074 5.41929C4.20074 0.876468 8.56974 0.62207 13.7181 0.62207H14.5801H21.6295C22.4679 0.62207 22.586 0.961267 22.586 1.80926C22.586 2.524 22.4797 2.97222 21.6295 2.97222H14.5801H14.4384C14.2152 2.97222 13.9973 2.97108 13.7854 2.96996H13.7854H13.7854H13.7854C11.4191 2.95752 9.79779 2.94899 9.79779 4.58341C9.79779 6.11953 10.5394 6.15767 14.4451 6.35847L14.5565 6.36419C20.3424 6.61859 23.448 6.8851 23.448 11.6944C23.448 15.995 20.3424 17.0247 13.3166 17.0247H12.0059ZM39.2126 8.89606C39.5668 8.89606 40.6414 8.8476 40.6414 8.8476C42.5779 8.78703 43.8178 8.45995 43.8178 5.8554C43.8178 3.31142 42.2945 2.86319 40.0392 2.86319H36.0598C35.2569 2.86319 34.9971 3.21451 34.9971 3.8929V8.09652V9.13834V15.0743C34.9971 16.8187 34.5602 17.0247 32.482 17.0247H31.7853C29.589 17.0247 29.1875 16.8187 29.1875 15.0743V2.81474C29.1875 1.0703 29.589 0.62207 31.7853 0.62207H42.3772C46.4392 0.62207 49.9344 1.03395 49.9344 5.7706C49.9344 10.3498 46.0377 11.1493 41.22 11.1251C41.22 11.1251 39.7203 11.113 39.2716 11.113L39.2514 11.113C38.9152 11.1135 38.2916 11.1144 38.2916 9.99845C38.2916 8.89101 38.8492 8.89411 39.1754 8.89592L39.2126 8.89606ZM99.845 14.7472C99.2074 14.7472 98.983 14.6382 98.4281 13.7175L92.0989 2.45131C91.3786 1.23989 90.4576 0.62207 88.8635 0.62207H83.6915C81.9085 0.62207 81.0938 1.17932 81.0938 2.92376V16.0192C81.0938 16.9035 81.7078 17.0247 82.6878 17.0247C83.845 17.0247 84.3055 16.9035 84.3055 16.0192V3.98981C84.3055 3.16605 84.4709 2.89954 85.1675 2.89954C85.8052 2.89954 86.0295 3.00856 86.5845 3.92924L92.9137 15.1954C93.634 16.4068 94.555 17.0247 96.1491 17.0247H101.321C103.104 17.0247 103.919 16.4674 103.919 14.723V1.62755C103.919 0.743212 103.458 0.62207 102.301 0.62207C101.321 0.62207 100.707 0.743212 100.707 1.62755V13.6569C100.707 14.4807 100.542 14.7472 99.845 14.7472ZM67.375 12.603H60.8215C60.3728 12.603 60.2075 12.1548 60.5853 11.4037C60.975 10.6526 61.2348 10.2044 62.0023 10.2044H66.2178C66.82 10.2044 66.9735 9.79251 66.7728 9.38062L63.8562 3.49313C63.5964 2.96011 63.2776 2.87531 62.6754 2.87531H62.392C61.7898 2.87531 61.4946 2.96011 61.2112 3.49313L58.2001 9.38062L56.0628 13.6085C55.9226 13.8806 55.7945 14.1312 55.6767 14.3619L55.6761 14.363C54.3362 16.9856 54.3101 17.0368 52.5086 17.0368C51.1507 17.0368 50.7137 16.746 51.2097 15.789L58.4953 2.16057C59.1329 0.912811 59.6761 0.62207 61.2702 0.62207H66.5366C68.1307 0.62207 68.6739 0.949153 69.347 2.16057L76.1721 14.7835C77.1285 16.5886 76.7743 17.0247 74.0584 17.0247C70.2178 17.0247 70.2081 17.0013 68.8645 13.7708L68.792 13.5964C68.4732 12.8332 68.3315 12.603 67.375 12.603ZM105.478 1.3489C105.372 1.55484 105.312 1.77289 105.312 2.00306C105.312 2.23323 105.372 2.45129 105.501 2.65723C105.608 2.86317 105.761 3.02065 105.962 3.1418C106.163 3.26294 106.375 3.32351 106.611 3.32351C106.848 3.32351 107.06 3.26294 107.261 3.1418C107.462 3.02065 107.615 2.86317 107.721 2.65723C107.828 2.45129 107.887 2.23323 107.887 2.00306C107.887 1.76078 107.828 1.54272 107.71 1.33678C107.591 1.13084 107.438 0.973358 107.237 0.852216C107.036 0.743188 106.824 0.682617 106.6 0.682617C106.363 0.682617 106.151 0.743188 105.95 0.86433C105.749 0.985472 105.596 1.14296 105.478 1.3489ZM105.643 2.57243C105.537 2.39072 105.49 2.209 105.49 2.00306C105.49 1.79712 105.537 1.6033 105.643 1.4337C105.738 1.2641 105.879 1.11873 106.045 1.02181C106.222 0.912787 106.399 0.86433 106.6 0.86433C106.8 0.86433 106.989 0.924901 107.155 1.02181C107.32 1.11873 107.462 1.2641 107.556 1.4337C107.662 1.61541 107.71 1.79712 107.71 2.00306C107.71 2.209 107.651 2.40283 107.556 2.57243C107.462 2.74203 107.32 2.8874 107.155 2.98431C106.977 3.09334 106.8 3.1418 106.6 3.1418C106.399 3.1418 106.222 3.08123 106.045 2.98431C105.879 2.8874 105.738 2.75414 105.643 2.57243ZM107.048 1.93038C107.096 1.86981 107.119 1.78501 107.119 1.68809C107.119 1.53061 107.072 1.40947 106.989 1.33678C106.907 1.2641 106.765 1.22776 106.576 1.22776H106.127V2.77837H106.375V2.16055H106.611L106.966 2.77837H107.249L106.848 2.08786C106.93 2.05152 107.001 2.00306 107.048 1.93038ZM106.564 1.95461H106.387V1.44581H106.564C106.67 1.44581 106.753 1.47004 106.8 1.50638C106.848 1.55484 106.871 1.61541 106.871 1.70021C106.871 1.77289 106.848 1.83346 106.789 1.88192C106.729 1.93038 106.659 1.95461 106.564 1.95461Z" fill="#1F1F1F"/>
</svg>
