<svg width="108" height="16" viewBox="0 0 108 16" fill="none" xmlns="http://www.w3.org/2000/svg">
<path fill-rule="evenodd" clip-rule="evenodd" d="M12.0059 15.9882H4.95646C4.11808 15.9882 4 15.6576 4 14.8192C4 14.1107 4.10627 13.6738 4.95646 13.6738H12.0059H12.8207C13.0511 13.6738 13.277 13.6747 13.4979 13.6757L13.4982 13.6757H13.4986H13.4989C16.1976 13.687 18.1343 13.6951 18.1343 11.938C18.1343 10.2784 17.232 10.2383 12.8399 10.043L12.7026 10.0369C6.34982 9.78893 4.20074 8.97417 4.20074 4.67601C4.20074 0.24797 8.56974 0 13.7181 0H14.5801H21.6295C22.4679 0 22.586 0.330627 22.586 1.1572C22.586 1.85387 22.4797 2.29077 21.6295 2.29077H14.5801H14.4384C14.2151 2.29077 13.9973 2.28966 13.7854 2.28857C11.4191 2.27644 9.79779 2.26813 9.79779 3.86125C9.79779 5.35857 10.5394 5.39574 14.4451 5.59147L14.5565 5.59705C20.3424 5.84502 23.448 6.1048 23.448 10.7926C23.448 14.9845 20.3424 15.9882 13.3166 15.9882H12.0059ZM39.2126 8.06495C39.5668 8.06495 40.6414 8.01771 40.6414 8.01771C42.5779 7.95867 43.8178 7.63985 43.8178 5.10111C43.8178 2.6214 42.2945 2.1845 40.0392 2.1845H36.0598C35.2569 2.1845 34.9971 2.52694 34.9971 3.18819V7.28561V8.30111V14.0871C34.9971 15.7875 34.5602 15.9882 32.482 15.9882H31.7853C29.589 15.9882 29.1875 15.7875 29.1875 14.0871V2.13727C29.1875 0.4369 29.589 0 31.7853 0H42.3772C46.4392 0 49.9344 0.401476 49.9344 5.01845C49.9344 9.48192 46.0377 10.2613 41.22 10.2376C41.22 10.2376 39.7203 10.2258 39.2716 10.2258L39.2514 10.2258C38.9152 10.2263 38.2916 10.2272 38.2916 9.13948C38.2916 8.06003 38.8492 8.06305 39.1753 8.06481L39.2126 8.06495ZM99.845 13.7683C99.2074 13.7683 98.983 13.662 98.4281 12.7646L92.0989 1.78303C91.3786 0.602214 90.4576 0 88.8635 0H83.6915C81.9085 0 81.0938 0.543173 81.0938 2.24354V15.0081C81.0938 15.8701 81.7078 15.9882 82.6878 15.9882C83.845 15.9882 84.3055 15.8701 84.3055 15.0081V3.28266C84.3055 2.4797 84.4709 2.21993 85.1675 2.21993C85.8052 2.21993 86.0295 2.3262 86.5845 3.22362L92.9137 14.2052C93.634 15.386 94.555 15.9882 96.1491 15.9882H101.321C103.104 15.9882 103.919 15.445 103.919 13.7446V0.980074C103.919 0.118081 103.458 0 102.301 0C101.321 0 100.707 0.118081 100.707 0.980074V12.7055C100.707 13.5085 100.542 13.7683 99.845 13.7683ZM67.375 11.6782H60.8215C60.3728 11.6782 60.2075 11.2413 60.5853 10.5092C60.975 9.77712 61.2348 9.34022 62.0023 9.34022H66.2178C66.82 9.34022 66.9735 8.93875 66.7728 8.53727L63.8562 2.79852C63.5964 2.27897 63.2776 2.19631 62.6754 2.19631H62.392C61.7898 2.19631 61.4946 2.27897 61.2112 2.79852L58.2001 8.53727L56.0628 12.6583C55.9226 12.9235 55.7946 13.1677 55.6768 13.3925L55.6761 13.3938C54.3362 15.9501 54.3101 16 52.5086 16C51.1507 16 50.7137 15.7166 51.2097 14.7838L58.4953 1.49963C59.1329 0.283395 59.6761 0 61.2702 0H66.5366C68.1307 0 68.6739 0.318819 69.347 1.49963L76.1721 13.8037C77.1285 15.5631 76.7743 15.9882 74.0584 15.9882C70.2178 15.9882 70.2081 15.9654 68.8645 12.8165L68.792 12.6465C68.4732 11.9026 68.3315 11.6782 67.375 11.6782ZM105.478 0.711946C105.372 0.912685 105.312 1.12523 105.312 1.34958C105.312 1.57394 105.372 1.78649 105.501 1.98722C105.608 2.18796 105.761 2.34147 105.962 2.45955C106.163 2.57763 106.375 2.63667 106.611 2.63667C106.848 2.63667 107.06 2.57763 107.261 2.45955C107.462 2.34147 107.615 2.18796 107.721 1.98722C107.828 1.78649 107.887 1.57394 107.887 1.34958C107.887 1.11342 107.828 0.900876 107.71 0.700138C107.591 0.4994 107.438 0.345895 107.237 0.227814C107.036 0.121541 106.824 0.0625 106.6 0.0625C106.363 0.0625 106.151 0.121541 105.95 0.239622C105.749 0.357703 105.596 0.511208 105.478 0.711946ZM105.643 1.90457C105.537 1.72744 105.49 1.55032 105.49 1.34958C105.49 1.14885 105.537 0.959917 105.643 0.794603C105.738 0.62929 105.879 0.487592 106.045 0.393127C106.222 0.286854 106.399 0.239622 106.6 0.239622C106.8 0.239622 106.989 0.298662 107.155 0.393127C107.32 0.487592 107.462 0.62929 107.556 0.794603C107.662 0.971725 107.71 1.14885 107.71 1.34958C107.71 1.55032 107.651 1.73925 107.556 1.90457C107.462 2.06988 107.32 2.21158 107.155 2.30604C106.977 2.41232 106.8 2.45955 106.6 2.45955C106.399 2.45955 106.222 2.40051 106.045 2.30604C105.879 2.21158 105.738 2.08169 105.643 1.90457ZM107.048 1.27874C107.096 1.2197 107.119 1.13704 107.119 1.04257C107.119 0.889068 107.072 0.770987 106.989 0.700138C106.907 0.62929 106.765 0.593865 106.576 0.593865H106.127V2.1053H106.375V1.50309H106.611L106.966 2.1053H107.249L106.848 1.43224C106.93 1.39682 107.001 1.34958 107.048 1.27874ZM106.564 1.30235H106.387V0.806411H106.564C106.67 0.806411 106.753 0.830028 106.8 0.865452C106.848 0.912685 106.871 0.971725 106.871 1.05438C106.871 1.12523 106.848 1.18427 106.789 1.2315C106.729 1.27874 106.659 1.30235 106.564 1.30235Z" fill="#FAFAFA"/>
</svg>
