<svg width="61" height="16" viewBox="0 0 61 16" fill="none" xmlns="http://www.w3.org/2000/svg">
<path d="M26.7 12V4.68H24.312V3.42H30.696V4.68H28.308V12H26.7ZM31.7789 12V5.724H33.2309V12H31.7789ZM32.4869 4.692C32.0069 4.692 31.6229 4.332 31.6229 3.864C31.6229 3.384 32.0069 3.024 32.4869 3.024C32.9669 3.024 33.3509 3.384 33.3509 3.864C33.3509 4.332 32.9669 4.692 32.4869 4.692ZM35.0007 12V2.82H36.4527V8.484L38.6967 5.724H40.2807L37.8447 8.604L40.4847 12H38.8047L36.4527 8.916V12H35.0007ZM43.3172 12V4.68H40.9292V3.42H47.3132V4.68H44.9252V12H43.3172ZM50.3829 10.992C51.4629 10.992 52.1109 10.188 52.1109 8.904V8.82C52.1109 7.524 51.4629 6.732 50.3829 6.732C49.3029 6.732 48.6429 7.512 48.6429 8.808V8.904C48.6429 10.188 49.2789 10.992 50.3829 10.992ZM50.3709 12.12C48.5229 12.12 47.1549 10.836 47.1549 8.928V8.832C47.1549 6.888 48.5349 5.592 50.3829 5.592C52.2189 5.592 53.5989 6.876 53.5989 8.796V8.892C53.5989 10.848 52.2189 12.12 50.3709 12.12ZM54.9109 12V2.82H56.3629V8.484L58.6069 5.724H60.1909L57.7549 8.604L60.3949 12H58.7149L56.3629 8.916V12H54.9109Z" fill="#FAFAFA"/>
<path d="M8 0C3.58162 0 0 3.58182 0 8C0 12.4182 3.58162 16 8 16C12.4184 16 15.9996 12.4182 15.9996 8C15.9996 3.58182 12.4179 0 8 0ZM12.1421 7.07583C12.0636 7.08293 11.9843 7.08781 11.9044 7.08781C10.9998 7.08781 10.2043 6.62306 9.74137 5.91929V9.89978C9.74137 11.5246 8.42392 12.8417 6.79962 12.8417C5.17532 12.8412 3.85788 11.5237 3.85788 9.89889C3.85788 8.27406 5.17532 6.95698 6.79962 6.95698C6.86126 6.95698 6.92112 6.96231 6.98099 6.96585V8.41597C6.92068 8.40887 6.8617 8.39778 6.79962 8.39778C5.9704 8.39778 5.29815 9.07007 5.29815 9.89933C5.29815 10.7286 5.96996 11.4009 6.79962 11.4009C7.62929 11.4009 8.3614 10.7472 8.3614 9.91796C8.3614 9.8847 8.37603 3.15743 8.37603 3.15743H9.76132C9.89125 4.39645 10.8916 5.37428 12.1421 5.46386V7.07494V7.07583Z" fill="#FAFAFA"/>
</svg>
