<svg width="65" height="16" viewBox="0 0 65 16" fill="none" xmlns="http://www.w3.org/2000/svg">
<path d="M26.7 12V4.68H24.312V3.42H30.696V4.68H28.308V12H26.7ZM32.617 12L30.697 5.724H32.245L33.493 10.26L34.825 5.724H36.037L37.261 10.26L38.569 5.724H39.985L38.017 12H36.541L35.377 7.776L34.105 12H32.617ZM41.1305 12V5.724H42.5825V12H41.1305ZM41.8385 4.692C41.3585 4.692 40.9745 4.332 40.9745 3.864C40.9745 3.384 41.3585 3.024 41.8385 3.024C42.3185 3.024 42.7025 3.384 42.7025 3.864C42.7025 4.332 42.3185 4.692 41.8385 4.692ZM46.4883 12.108C45.2403 12.108 44.5923 11.436 44.5923 10.248V6.816H43.7523V5.724H44.5923V4.344H46.0443V5.724H47.4243V6.816H46.0443V10.116C46.0443 10.668 46.3083 10.92 46.7643 10.92C47.0523 10.92 47.2683 10.884 47.4723 10.8V11.952C47.2443 12.036 46.9323 12.108 46.4883 12.108ZM50.918 12.108C49.67 12.108 49.022 11.436 49.022 10.248V6.816H48.182V5.724H49.022V4.344H50.474V5.724H51.854V6.816H50.474V10.116C50.474 10.668 50.738 10.92 51.194 10.92C51.482 10.92 51.698 10.884 51.902 10.8V11.952C51.674 12.036 51.362 12.108 50.918 12.108ZM55.9717 12.12C54.1237 12.12 52.7917 10.908 52.7917 8.928V8.832C52.7917 6.888 54.1237 5.592 55.9117 5.592C57.4717 5.592 58.8757 6.516 58.8757 8.76V9.18H54.2797C54.3277 10.368 54.9277 11.04 56.0077 11.04C56.8837 11.04 57.3397 10.692 57.4477 10.08H58.8517C58.6477 11.4 57.5797 12.12 55.9717 12.12ZM54.3037 8.208H57.4357C57.3637 7.128 56.8117 6.648 55.9117 6.648C55.0357 6.648 54.4477 7.236 54.3037 8.208ZM60.1726 12V5.724H61.6246V6.9C62.0206 6.108 62.6086 5.64 63.6646 5.628V6.984C62.3926 6.996 61.6246 7.404 61.6246 8.736V12H60.1726Z" fill="#FAFAFA"/>
<g clip-path="url(#clip0_66_66)">
<path fill-rule="evenodd" clip-rule="evenodd" d="M8 0C12.4153 0 16 3.58469 16 8C16 12.4153 12.4153 16 8 16C3.58469 16 0 12.4153 0 8C0 3.58469 3.58469 0 8 0ZM6.59091 12.2549C10.131 12.2549 12.0667 9.3215 12.0667 6.77922C12.0667 6.69541 12.0667 6.61159 12.0627 6.53175C12.4378 6.26038 12.7651 5.92112 13.0245 5.534C12.6813 5.68566 12.3101 5.78944 11.919 5.83731C12.3181 5.59784 12.6214 5.22269 12.7651 4.77172C12.3939 4.99122 11.9828 5.15084 11.5438 5.23866C11.1926 4.8635 10.6937 4.63203 10.139 4.63203C9.07734 4.63203 8.21528 5.49409 8.21528 6.55572C8.21528 6.70738 8.23125 6.85503 8.26716 6.99472C6.66675 6.91491 5.24991 6.14862 4.30006 4.98322C4.13641 5.26659 4.04063 5.59784 4.04063 5.94906C4.04063 6.61556 4.37988 7.20625 4.89872 7.54947C4.58341 7.5415 4.28806 7.45369 4.02866 7.31003V7.33397C4.02866 8.26787 4.69116 9.04213 5.57319 9.22175C5.41356 9.26562 5.24194 9.28959 5.06634 9.28959C4.94259 9.28959 4.82288 9.27763 4.70316 9.25366C4.94659 10.0199 5.657 10.5747 6.49913 10.5907C5.84059 11.1055 5.01047 11.4128 4.10847 11.4128C3.95281 11.4128 3.80116 11.4048 3.6495 11.3849C4.49162 11.9357 5.50534 12.2549 6.59091 12.2549Z" fill="#FAFAFA"/>
</g>
<defs>
<clipPath id="clip0_66_66">
<rect width="16" height="16" fill="white"/>
</clipPath>
</defs>
</svg>
