<svg width="74" height="16" viewBox="0 0 74 16" fill="none" xmlns="http://www.w3.org/2000/svg">
<path d="M27.048 12V8.28L24.204 3.42H25.968L27.9 6.972L29.784 3.42H31.344L28.656 8.292V12H27.048ZM34.2579 10.992C35.3379 10.992 35.9859 10.188 35.9859 8.904V8.82C35.9859 7.524 35.3379 6.732 34.2579 6.732C33.1779 6.732 32.5179 7.512 32.5179 8.808V8.904C32.5179 10.188 33.1539 10.992 34.2579 10.992ZM34.2459 12.12C32.3979 12.12 31.0299 10.836 31.0299 8.928V8.832C31.0299 6.888 32.4099 5.592 34.2579 5.592C36.0939 5.592 37.4739 6.876 37.4739 8.796V8.892C37.4739 10.848 36.0939 12.12 34.2459 12.12ZM40.8859 12.12C39.6499 12.12 38.7259 11.412 38.7259 9.744V5.724H40.1779V9.576C40.1779 10.524 40.5739 10.956 41.4139 10.956C42.1939 10.956 42.8779 10.452 42.8779 9.456V5.724H44.3299V12H42.8779V11.016C42.5659 11.628 41.9059 12.12 40.8859 12.12ZM47.8875 12V4.68H45.4995V3.42H51.8835V4.68H49.4955V12H47.8875ZM54.4913 12.12C53.2553 12.12 52.3313 11.412 52.3313 9.744V5.724H53.7833V9.576C53.7833 10.524 54.1793 10.956 55.0193 10.956C55.7993 10.956 56.4833 10.452 56.4833 9.456V5.724H57.9353V12H56.4833V11.016C56.1713 11.628 55.5113 12.12 54.4913 12.12ZM63.161 12.12C62.165 12.12 61.445 11.628 61.109 10.992V12H59.657V2.82H61.109V6.732C61.457 6.132 62.237 5.592 63.161 5.592C64.733 5.592 65.945 6.756 65.945 8.784V8.88C65.945 10.896 64.781 12.12 63.161 12.12ZM62.801 10.968C63.869 10.968 64.457 10.248 64.457 8.904V8.808C64.457 7.416 63.737 6.732 62.789 6.732C61.781 6.732 61.061 7.416 61.061 8.808V8.904C61.061 10.308 61.745 10.968 62.801 10.968ZM70.0107 12.12C68.1627 12.12 66.8307 10.908 66.8307 8.928V8.832C66.8307 6.888 68.1627 5.592 69.9507 5.592C71.5107 5.592 72.9147 6.516 72.9147 8.76V9.18H68.3187C68.3667 10.368 68.9667 11.04 70.0467 11.04C70.9227 11.04 71.3787 10.692 71.4867 10.08H72.8907C72.6867 11.4 71.6187 12.12 70.0107 12.12ZM68.3427 8.208H71.4747C71.4027 7.128 70.8507 6.648 69.9507 6.648C69.0747 6.648 68.4867 7.236 68.3427 8.208Z" fill="#FAFAFA"/>
<g clip-path="url(#clip0_66_78)">
<path fill-rule="evenodd" clip-rule="evenodd" d="M8 0C12.4153 0 16 3.58469 16 8C16 12.4153 12.4153 16 8 16C3.58469 16 0 12.4153 0 8C0 3.58469 3.58469 0 8 0ZM12.7911 5.59306C12.6761 5.16278 12.3373 4.824 11.907 4.709C11.1271 4.5 8 4.5 8 4.5C8 4.5 4.87291 4.5 4.09297 4.709C3.66281 4.824 3.32391 5.16278 3.20891 5.59306C3 6.37291 3 8.00006 3 8.00006C3 8.00006 3 9.62716 3.20891 10.4069C3.32391 10.8372 3.66281 11.1761 4.09297 11.2911C4.87291 11.5 8 11.5 8 11.5C8 11.5 11.1271 11.5 11.907 11.2911C12.3373 11.1761 12.6761 10.8372 12.7911 10.4069C13 9.62716 13 8.00006 13 8.00006C13 8.00006 13 6.37291 12.7911 5.59306ZM6.99997 9.50009V6.50003L9.598 8.00006L6.99997 9.50009Z" fill="#FAFAFA"/>
</g>
<defs>
<clipPath id="clip0_66_78">
<rect width="16" height="16" fill="white"/>
</clipPath>
</defs>
</svg>
